<?xml version="1.0" encoding="UTF-8"?>
<svg width="401px" height="401px" viewBox="0 0 401 401" version="1.1" xmlns="http://www.w3.org/2000/svg" xmlns:xlink="http://www.w3.org/1999/xlink">
    <!-- Generator: Sketch 46.2 (44496) - http://www.bohemiancoding.com/sketch -->
    <title>Mask</title>
    <desc>Created with Sketch.</desc>
    <defs>
        <path d="M369.5,200 C399.9,181 409.2,141 390.2,110.6 C374.9,86.1 345.3,74.6 317.5,82.5 C327.1,47.9 306.9,12.1 272.3,2.6 C244.7,-5.1 215.3,6.3 200,30.6 C181,0.2 141,-9.1 110.6,9.9 C86.1,25.2 74.6,54.8 82.5,82.6 C47.9,73 12.1,93.2 2.6,127.8 C-5.1,155.4 6.3,184.8 30.6,200.1 C0.2,219.1 -9.1,259.1 9.9,289.5 C25.2,314 54.8,325.5 82.6,317.6 C72.9,352.1 93.1,388 127.6,397.6 C155.3,405.4 184.9,393.9 200.1,369.6 C219.1,400 259.1,409.3 289.5,390.3 C314,375 325.5,345.4 317.6,317.6 C352.1,327.3 388,307.1 397.6,272.6 C405.4,244.8 394,215.3 369.5,200 L369.5,200 Z M210,111.8 L210,65 C210,40.1 230.1,20 254.9,19.9 C279.8,19.9 299.9,40 300,64.8 C300,79.6 292.7,93.5 280.5,101.9 C265.1,96 247.9,103.8 242,119.2 C240.9,122.1 240.3,125.1 240.1,128.2 C240.1,128.8 239.9,129.4 239.9,130 C239.9,146.6 253.3,160 269.9,160 L269.9,160 C270.5,160 271.1,159.9 271.7,159.8 C288.1,159 300.7,145.1 299.9,128.7 C299.7,125.5 299.1,122.4 297.9,119.4 C312,98.9 340,93.8 360.5,107.9 C381,122 386.1,150 372,170.5 C363.6,182.7 349.7,190 334.9,190 L230,190 C219,190 210,181 210,170 L210,111.8 Z M20,145 C20,120.1 40.2,100 65.1,100.1 C79.8,100.1 93.6,107.4 102,119.5 C96.1,134.9 103.9,152.1 119.3,158 C122.2,159.1 125.2,159.7 128.3,159.9 C128.9,159.9 129.5,160.1 130.1,160.1 C146.7,160.1 160.1,146.7 160.1,130.1 C160.1,129.5 160,128.9 159.9,128.3 C159.1,111.9 145.2,99.3 128.8,100.1 C125.6,100.3 122.5,100.9 119.5,102.1 C99,88 93.9,60 108,39.5 C122.1,19 150.1,13.9 170.6,28 C182.7,36.3 190,50.2 190,65 L190,170 C190,181 181,190 170,190 L65,190 C40.1,190 20,169.9 20,145 Z M190,288.2 L190,335 C190,359.9 169.9,380 145.1,380.1 C120.3,380.2 100,360 100,335.1 C100,320.3 107.3,306.4 119.5,298 C134.9,303.9 152.1,296.1 158,280.7 C159.1,277.8 159.7,274.8 159.9,271.7 C159.9,271.1 160.1,270.5 160.1,269.9 C160.1,253.3 146.7,239.9 130.1,239.9 L130.1,239.9 C129.5,239.9 128.9,240 128.3,240.1 C111.9,240.9 99.3,254.8 100.1,271.2 C100.3,274.4 100.9,277.5 102.1,280.5 C88,301 60,306.1 39.5,292 C19,277.9 13.9,249.9 28,229.4 C36.3,217.3 50.2,210 65,210 L170,210 C181,210 190,219 190,230 L190,288.2 Z M335,300 C320.2,300 306.4,292.7 298,280.5 C303.9,265.1 296.1,247.9 280.7,242 C277.8,240.9 274.8,240.3 271.7,240.1 C271.1,240.1 270.5,239.9 269.9,239.9 C253.3,239.9 239.9,253.3 239.9,269.9 L239.9,269.9 C239.9,270.5 240,271.1 240.1,271.7 C240.9,288.1 254.8,300.7 271.2,299.9 C274.4,299.7 277.5,299.1 280.5,297.9 C301,312 306.1,340 292,360.5 C277.9,381 249.9,386.1 229.4,372 C217.2,363.6 209.9,349.7 209.9,334.9 L209.9,230 C209.9,219 218.9,210 229.9,210 L334.9,210 C359.8,210 379.9,230.1 379.9,255 C379.9,279.9 359.9,300 335,300 L335,300 Z" id="path-1"></path>
    </defs>
    <g id="Page-1" stroke="none" stroke-width="1" fill="none" fill-rule="evenodd">
        <mask id="mask-2" fill="white">
            <use xlink:href="#path-1"></use>
        </mask>
        <use id="Mask" fill="#E00000" fill-rule="nonzero" xlink:href="#path-1"></use>
    </g>
</svg>